<?xml version="1.0" encoding="utf-8"?>
<!-- Generator: Adobe Illustrator 26.2.1, SVG Export Plug-In . SVG Version: 6.00 Build 0)  -->
<svg version="1.1" id="Layer_1" xmlns="http://www.w3.org/2000/svg" xmlns:xlink="http://www.w3.org/1999/xlink" x="0px" y="0px"
	 viewBox="0 0 719 719" style="enable-background:new 0 0 719 719;" xml:space="preserve">
<style type="text/css">
	.st0{fill:#938979;}
</style>
<path class="st0" d="M702.2,337.5v40.2c-6.1,130.2-95,255.9-217.9,300.9c-14.3,5.3-32.3,14.5-39.1-5.8c-1.5-33.1,1.7-67.5,0-100.4
	c-1.3-23.5-6.1-44.8-22.8-62.2c55.5-5,113.2-26.1,138.2-79.5c25.5-54.4,26.9-135.8-17.4-181.2c8.3-22.3,8.6-47.1,3.1-70.1
	c-0.8-3.5-5.1-18.2-6.7-20.1c-5.7-6.2-28.8,1.5-36.2,4c-20.5,7-39.1,18.5-57.7,29.5c-56.9-13.7-114.5-14.7-171.3,0.1
	c-28.8-15.5-61.3-37.6-95.5-34.7c-10.9,29.9-14.8,61-3.1,91.4c-40.9,42.2-42.1,110.9-24.2,163.9c22.6,67,79.1,89.5,145,97.4
	c-13.3,12.5-18.2,29.1-22.3,46.3c-27.4,10.4-57.9,13.9-81.4-6.8c-13.9-12.2-19.6-30.7-34.9-42.8c-12-9.5-35.7-21.2-49.6-10.7
	c-4,7.5,16.9,18.9,21.5,22.8c32.1,27.1,24.2,70.2,72,83.4c6.2,1.7,14.1,2.9,20.5,3.6c17.2,2,34.7,1.9,51.5-2.7
	c-2.8,20.5,4.3,46.3,1,66c-2.8,16.6-15.2,16.9-28.5,13.1C137.8,651.7,45.5,539.1,23.8,430.1C-24,189.6,179.3-20.7,421.3,21.9
	C574.4,48.9,693,182.3,702.2,337.5z"/>
</svg>
