<?xml version="1.0" encoding="UTF-8"?><svg id="a" xmlns="http://www.w3.org/2000/svg" viewBox="0 0 719 719"><path d="M340.06,24.98h-.03C78.38,39.37-66.38,340.79,87.44,555.01c143.25,199.54,446.45,181.97,565.34-32.66C781.03,290.82,602.44,10.53,340.06,24.98Zm-92.12,535.36h-83.21V293.62h83.21v266.72Zm-54.45-308.56c-49.06-13.34-42.54-86.03,4.02-92.35,79.74-10.81,69.19,112.25-4.02,92.35Zm285.83,308.56v-153.3c0-50.61-84.55-62.78-101.76-7.17-.76,2.48-3.09,10.98-3.09,12.85v147.59h-80.93V293.59h76.36v37.61c17.86-22,43.15-37.67,71.55-41.87,37.84-5.56,81.22,9.03,101.47,42.65,6.03,10.02,17.31,36.45,17.31,47.66v180.66l.03,.03h-80.93Z" fill="#938979"/></svg>