<?xml version="1.0" encoding="UTF-8"?><svg id="a" xmlns="http://www.w3.org/2000/svg" viewBox="0 0 719 719"><path d="M359.47,308.42c-11.8,22.64-28.47,39.09-51.08,51.15,22.95,11.88,39.33,28.77,51.25,50.98,11.88-22.8,28.74-39.24,51.03-51.15-22.84-11.81-39.25-28.7-51.21-50.98Z" fill="#938a79"/><path d="M359.49,24.44C174.45,24.44,24.44,174.45,24.44,359.5s150.01,335.06,335.06,335.06,335.06-150.01,335.06-335.06S544.54,24.44,359.49,24.44ZM186.48,457.99c1.85,3.32,3.86,6.81,4.57,10.46,1.65,8.45-3.25,16.41-11.07,19.29-8.08,2.97-16.66,.02-21.39-7.77-10.81-17.78-18.96-36.74-24.62-56.77-32.11-113.62,25.57-233.74,134.55-279.6,47.81-20.12,97.06-23.86,147.47-11.36,1.04,.26,2.1,.43,4.34,.88-2.5-4.41-4.58-7.85-6.44-11.4-4.65-8.88-1.86-19.1,6.44-23.9,8.39-4.85,18.77-2.41,23.91,6.28,10.43,17.66,20.67,35.45,30.66,53.36,5.15,9.25,1.9,19.5-7.67,24.25-18.36,9.12-36.84,18.01-55.43,26.67-9.01,4.19-19.17,.11-23.21-8.62-3.93-8.49-.51-18.45,8.09-22.99,5.33-2.81,10.82-5.31,17.85-8.74-7.24-1.67-12.94-3.24-18.74-4.28-103.7-18.55-202.63,44.29-228.98,146.04-13.43,51.83-6.4,101.37,19.67,148.19Zm286.56-98.19c-.1,8.7-5.07,15.51-14.14,18.95-7.7,2.92-15.52,5.52-23.23,8.41-23.1,8.64-39.23,24.42-48.07,47.48-3.21,8.37-5.96,16.92-9.24,25.26-3.36,8.55-10.42,13.18-20.85,13.06-7.17-.48-13.5-4.79-16.75-13.12-3.39-8.69-6.28-17.58-9.7-26.26-8.57-21.79-23.8-37.06-45.62-45.59-8.01-3.13-16.17-5.86-24.25-8.81-9.93-3.63-15.2-10.62-15.1-19.97,.1-9.04,5.39-15.8,15.17-19.35,8.26-3,16.61-5.75,24.76-9.01,21.34-8.55,36.35-23.61,44.9-44.94,3.27-8.15,5.97-16.52,8.99-24.77,3.57-9.76,10.37-15.02,19.41-15.09,9.36-.08,16.23,5.1,19.91,15.15,2.77,7.56,5.29,15.21,8.16,22.74,8.95,23.45,25.24,39.52,48.85,48.12,7.57,2.76,15.19,5.35,22.71,8.23,9.3,3.56,14.2,10.51,14.1,19.53Zm-55.78,226.83c-37.83,9.68-75.76,9.65-113.68,.28-1.21-.3-2.44-.53-4.78-1.03,2.36,4.2,4.33,7.56,6.16,10.99,4.86,9.13,2.14,19.56-6.3,24.35-8.64,4.91-18.81,2.2-24.15-6.89-10.2-17.37-20.27-34.83-30.13-52.39-5.44-9.69-2.02-20.07,8.06-25,17.76-8.68,35.6-17.22,53.46-25.68,9.8-4.64,20.02-1.33,24.38,7.61,4.4,9.02,.71,19.07-8.91,23.96-5.04,2.56-10.18,4.93-15.27,7.39l-.09,1.5c10.34,1.9,20.6,4.7,31.03,5.57,81.36,6.76,146.55-22.94,190.34-91.74,42.18-66.27,41.99-135.77,4.96-205.11-2.02-3.78-3.97-7.99-4.4-12.16-.82-7.97,4.4-14.91,11.73-17.26,7.75-2.49,16.6,.19,20.45,7.68,7.35,14.29,15.21,28.54,20.49,43.64,45.43,129.91-30.04,270.17-163.35,304.28Z" fill="#938a79"/></svg>