<?xml version="1.0" encoding="UTF-8"?><svg xmlns="http://www.w3.org/2000/svg" viewBox="0 0 719 719"><g id="a"><g id="b"><path d="M405.99,38.7c-1.4-6.86-7.12-12-14.09-12.68-21.55-2.09-43.25-2.09-64.81,0-6.97,.69-12.68,5.82-14.09,12.68l-7.98,38.83c-13.34,2.57-26.5,6.09-39.34,10.55l-26.33-29.64c-4.66-5.23-12.17-6.83-18.54-3.94-19.7,8.97-38.5,19.82-56.13,32.4-5.7,4.07-8.07,11.38-5.86,18.01l12.51,37.62c-10.27,8.92-19.9,18.54-28.81,28.81l-37.62-12.51c-6.64-2.22-13.94,.16-18.01,5.86-12.59,17.63-23.44,36.42-32.4,56.13-2.89,6.37-1.29,13.88,3.94,18.54l29.64,26.33c-4.45,12.84-7.98,26.01-10.55,39.34l-38.83,7.98c-6.86,1.4-12,7.12-12.68,14.09-2.09,21.55-2.09,43.25,0,64.81,.69,6.97,5.82,12.68,12.68,14.09l38.83,7.98c2.57,13.34,6.09,26.5,10.55,39.34l-29.64,26.33c-5.23,4.66-6.83,12.17-3.94,18.54,8.97,19.7,19.82,38.5,32.4,56.13,4.07,5.7,11.38,8.07,18.01,5.86l37.62-12.51c8.92,10.27,18.54,19.9,28.81,28.81l-12.51,37.62c-2.22,6.64,.16,13.94,5.86,18.01,17.63,12.59,36.42,23.44,56.13,32.4,6.37,2.89,13.88,1.29,18.54-3.94l26.33-29.64c12.84,4.45,26.01,7.98,39.34,10.55l7.98,38.83c1.4,6.86,7.12,12,14.09,12.68,21.55,2.09,43.25,2.09,64.81,0,6.97-.69,12.68-5.82,14.09-12.68l7.98-38.83c13.34-2.57,26.5-6.09,39.34-10.55l26.33,29.64c4.66,5.23,12.17,6.83,18.54,3.94,19.7-8.97,38.5-19.82,56.13-32.4,5.7-4.07,8.07-11.38,5.86-18.01l-12.51-37.62c10.27-8.92,19.9-18.54,28.81-28.81l37.62,12.51c6.64,2.22,13.94-.16,18.01-5.86,12.59-17.63,23.44-36.42,32.4-56.13,2.89-6.37,1.29-13.88-3.94-18.54l-29.64-26.33c4.45-12.84,7.98-26.01,10.55-39.34l38.83-7.98c6.86-1.4,12-7.12,12.68-14.09,2.09-21.55,2.09-43.25,0-64.81-.69-6.97-5.82-12.68-12.68-14.09l-38.83-7.98c-2.57-13.34-6.09-26.5-10.55-39.34l29.64-26.33c5.23-4.66,6.83-12.17,3.94-18.54-8.97-19.7-19.82-38.5-32.4-56.13-4.07-5.7-11.38-8.07-18.01-5.86l-37.62,12.51c-8.92-10.27-18.54-19.9-28.81-28.81l12.51-37.62c2.22-6.64-.16-13.94-5.86-18.01-17.63-12.59-36.42-23.44-56.13-32.4-6.37-2.89-13.88-1.29-18.54,3.94l-26.33,29.64c-12.84-4.45-26.01-7.98-39.34-10.55l-7.98-38.83h0Zm-46.49,97.44c-123.28,0-223.37,100.08-223.37,223.37s100.08,223.37,223.37,223.37,223.37-100.08,223.37-223.37-100.08-223.37-223.37-223.37Zm0,31.91c105.67,0,191.46,85.79,191.46,191.46s-85.79,191.46-191.46,191.46-191.46-85.79-191.46-191.46,85.79-191.46,191.46-191.46Zm78.67,250.2l44.67-47.86c5.73-6.13,5.73-15.64,0-21.76l-44.67-47.86c-6.01-6.45-16.11-6.8-22.54-.78-6.45,6.01-6.8,16.11-.78,22.54l34.51,36.98-34.51,36.98c-6.01,6.43-5.66,16.53,.78,22.54,6.43,6.01,16.53,5.66,22.54-.78h0Zm-134.02-21.76l-34.51-36.98,34.51-36.98c6.01-6.43,5.66-16.53-.78-22.54-6.43-6.01-16.53-5.66-22.54,.78l-44.67,47.86c-5.73,6.13-5.73,15.64,0,21.76l44.67,47.86c6.01,6.45,16.11,6.8,22.54,.78,6.45-6.01,6.8-16.11,.78-22.54h0Zm57.04-76.02l-31.91,63.82c-3.94,7.87-.75,17.47,7.13,21.4,7.87,3.94,17.47,.75,21.4-7.13l31.91-63.82c3.94-7.87,.75-17.47-7.13-21.4-7.87-3.94-17.47-.75-21.4,7.13Z" fill="#938a79" fill-rule="evenodd"/></g></g><g id="c"/></svg>