<?xml version="1.0" encoding="UTF-8"?><svg xmlns="http://www.w3.org/2000/svg" viewBox="0 0 719 719"><g id="a"><g><path d="M294.37,632.8c15.06,3.59,30.59,5.96,46.48,7v-112.25c-30.76,.77-60.77,3.43-89.29,7.85,10.91,38.83,25.42,72.31,42.81,97.39Z" fill="#938a79"/><path d="M242.74,499.08c31.35-5.02,64.35-8.01,98.11-8.82v-112.11h-111.64c1.07,42.45,5.76,83.48,13.53,120.93Z" fill="#938a79"/><path d="M557.76,160.64c-23.01-22.94-49.97-41.91-79.76-55.83,9.95,20.97,18.67,44.76,25.88,70.74,18.94-4.15,36.98-9.14,53.88-14.92Z" fill="#938a79"/><path d="M229.21,340.85h111.64v-113.35c-33.67-.8-66.58-3.78-97.86-8.78-7.92,37.78-12.7,79.23-13.78,122.13Z" fill="#938a79"/><path d="M241,104.81c-29.78,13.91-56.75,32.88-79.76,55.83,16.9,5.78,34.94,10.76,53.88,14.92,7.21-25.98,15.93-49.77,25.88-70.74Z" fill="#938a79"/><path d="M160.32,557.43c23.21,23.36,50.5,42.66,80.68,56.76-10.1-21.29-18.93-45.47-26.21-71.91-19.16,4.21-37.41,9.28-54.48,15.16Z" fill="#938a79"/><path d="M206.37,211.78c-25.42-5.61-49.4-12.63-71.38-20.98-31.9,42.35-52.1,93.98-55.79,150.05h112.73c1.07-44.7,5.99-88.58,14.45-129.07Z" fill="#938a79"/><path d="M191.92,378.15H79.19c3.66,55.64,23.58,106.91,55.06,149.08,22.11-8.44,46.26-15.54,71.87-21.2-8.3-40.16-13.14-83.62-14.2-127.88Z" fill="#938a79"/><path d="M251.9,182.4c28.42,4.39,58.31,7.03,88.95,7.8V79.19c-15.89,1.05-31.42,3.41-46.48,7-17.2,24.83-31.6,57.88-42.47,96.2Z" fill="#938a79"/><path d="M512.63,211.78c8.45,40.49,13.38,84.37,14.45,129.07h112.73c-3.69-56.07-23.89-107.69-55.8-150.05-21.99,8.35-45.97,15.37-71.38,20.98Z" fill="#938a79"/><path d="M512.88,506.03c25.61,5.66,49.75,12.75,71.87,21.2,31.48-42.17,51.4-93.44,55.06-149.08h-112.73c-1.06,44.26-5.9,87.72-14.2,127.88Z" fill="#938a79"/><path d="M359.5,16.38C170,16.38,16.38,170,16.38,359.5s153.62,343.12,343.12,343.12,343.12-153.62,343.12-343.12S549,16.38,359.5,16.38Zm224.77,567.89c-29.27,29.27-63.3,52.26-101.15,68.34-13.41,5.7-27.1,10.41-41.01,14.18-.95,.34-1.92,.6-2.91,.78-25.89,6.75-52.55,10.16-79.7,10.16s-53.81-3.42-79.71-10.16c-.98-.18-1.95-.44-2.89-.78-13.91-3.77-27.61-8.48-41.02-14.18-37.85-16.08-71.89-39.08-101.15-68.34-29.27-29.27-52.26-63.3-68.34-101.15-16.67-39.24-25.12-80.83-25.12-123.61s8.45-84.37,25.12-123.61c16.08-37.85,39.08-71.89,68.34-101.15,29.27-29.27,63.3-52.26,101.15-68.34,13.42-5.7,27.13-10.42,41.06-14.19,.87-.31,1.76-.54,2.66-.72,25.95-6.78,52.68-10.22,79.9-10.22s53.95,3.43,79.9,10.22c.9,.18,1.79,.41,2.66,.72,13.93,3.77,27.63,8.49,41.06,14.19,37.86,16.08,71.89,39.08,101.15,68.34,29.27,29.27,52.26,63.3,68.34,101.15,16.67,39.24,25.12,80.83,25.12,123.61s-8.45,84.37-25.12,123.61c-16.08,37.85-39.08,71.89-68.34,101.15Z" fill="#938a79"/><path d="M478,614.19c30.18-14.1,57.47-33.4,80.68-56.76-17.06-5.88-35.32-10.94-54.48-15.16-7.28,26.44-16.11,50.63-26.2,71.91Z" fill="#938a79"/><path d="M476.01,218.72c-31.28,5-64.19,7.97-97.86,8.78v113.35h111.64c-1.08-42.9-5.86-84.36-13.78-122.13Z" fill="#938a79"/><path d="M378.15,378.15v112.11c33.76,.81,66.76,3.8,98.11,8.82,7.77-37.45,12.46-78.48,13.53-120.93h-111.64Z" fill="#938a79"/><path d="M424.63,86.19c-15.06-3.59-30.59-5.96-46.48-7v111c30.64-.76,60.54-3.4,88.95-7.8-10.87-38.33-25.27-71.37-42.47-96.2Z" fill="#938a79"/><path d="M378.15,639.81c15.89-1.05,31.42-3.41,46.48-7,17.38-25.09,31.9-58.56,42.81-97.4-28.52-4.42-58.53-7.08-89.29-7.85v112.25Z" fill="#938a79"/></g></g><g id="b"/></svg>