<?xml version="1.0" encoding="UTF-8"?>
<svg id="Capa_1" data-name="Capa 1" xmlns="http://www.w3.org/2000/svg" viewBox="0 0 337.73 335.14">
  <defs>
    <style>
      .cls-1 {
        fill: #938979;
      }
    </style>
  </defs>
  <path class="cls-1" d="M290.48,162.6v13.49c-2.04,43.73-31.9,85.96-73.2,101.09-4.82,1.77-10.85,4.88-13.13-1.94-.5-11.11.58-22.67,0-33.73-.42-7.9-2.05-15.04-7.66-20.89,18.64-1.68,38.01-8.78,46.41-26.69,8.57-18.28,9.03-45.63-5.84-60.86,2.79-7.49,2.88-15.83,1.04-23.56-.28-1.16-1.7-6.13-2.26-6.74-1.9-2.08-9.69.5-12.15,1.34-6.9,2.35-13.14,6.22-19.37,9.9-19.11-4.61-38.46-4.93-57.54.04-9.67-5.21-20.59-12.62-32.09-11.67-3.65,10.05-4.97,20.49-1.05,30.69-13.73,14.18-14.14,37.25-8.13,55.05,7.59,22.49,26.58,30.08,48.7,32.71-4.47,4.19-6.11,9.77-7.49,15.56-9.2,3.51-19.46,4.66-27.35-2.3-4.66-4.11-6.6-10.31-11.72-14.37-4.03-3.19-11.98-7.11-16.66-3.61-1.34,2.52,5.68,6.36,7.21,7.66,10.77,9.09,8.12,23.58,24.17,28,2.08.57,4.72.97,6.88,1.22,5.78.66,11.66.64,17.31-.9-.93,6.89,1.45,15.55.35,22.16-.93,5.56-5.1,5.69-9.58,4.4-36.43-10.52-67.46-48.32-74.73-84.94C46.53,112.91,114.82,42.27,196.11,56.59c51.43,9.06,91.26,53.89,94.37,106.01Z"/>
</svg>