<?xml version="1.0" encoding="UTF-8"?><svg id="a" xmlns="http://www.w3.org/2000/svg" viewBox="0 0 525.63 521.61"><path d="M369.57,155.27c-36.33-36.33-51.31-143.83-106.75-143.83s-70.42,107.49-106.75,143.83C119.73,191.6,12.23,206.58,12.23,262.02s107.49,70.42,143.83,106.75c36.33,36.33,51.31,143.83,106.75,143.83s70.42-107.49,106.75-143.83c36.33-36.33,143.83-51.31,143.83-106.75s-107.49-70.42-143.83-106.75h.01Zm-106.76,243.22c-75.37,0-136.47-61.1-136.47-136.47s61.1-136.47,136.47-136.47,136.47,61.1,136.47,136.47-61.1,136.47-136.47,136.47Z" fill="none" stroke="#938979" stroke-miterlimit="10" stroke-width="10"/><path d="M304.08,266.43c-26.31,0-47.64-21.33-47.64-47.64,0-12.37,4.75-23.59,12.48-32.06-2.02-.16-4.05-.27-6.11-.27-41.73,0-75.56,33.83-75.56,75.56s33.83,75.56,75.56,75.56,75.56-33.83,75.56-75.56c0-3.23-.23-6.41-.62-9.54-8.62,8.61-20.52,13.94-33.67,13.94h0Z" fill="none" stroke="#938979" stroke-miterlimit="10" stroke-width="10"/></svg>