<?xml version="1.0" encoding="utf-8"?>
<!-- Generator: Adobe Illustrator 26.2.1, SVG Export Plug-In . SVG Version: 6.00 Build 0)  -->
<svg version="1.1" id="a" xmlns="http://www.w3.org/2000/svg" xmlns:xlink="http://www.w3.org/1999/xlink" x="0px" y="0px"
	 viewBox="0 0 525.6 521.6" style="enable-background:new 0 0 525.6 521.6;" xml:space="preserve">
<style type="text/css">
	.st0{fill:none;stroke:#938979;stroke-width:4;stroke-miterlimit:10;}
</style>
<path class="st0" d="M369.6,155.3c-36.3-36.3-51.3-143.8-106.8-143.8s-70.4,107.5-106.8,143.8C119.7,191.6,12.2,206.6,12.2,262
	s107.5,70.4,143.8,106.8c36.3,36.3,51.3,143.8,106.8,143.8s70.4-107.5,106.8-143.8c36.3-36.3,143.8-51.3,143.8-106.8
	S405.9,191.6,369.6,155.3L369.6,155.3L369.6,155.3z M262.8,398.5c-75.4,0-136.5-61.1-136.5-136.5s61.1-136.5,136.5-136.5
	S399.3,186.6,399.3,262S338.2,398.5,262.8,398.5z"/>
<path class="st0" d="M304.1,266.4c-26.3,0-47.6-21.3-47.6-47.6c0-12.4,4.8-23.6,12.5-32.1c-2-0.2-4-0.3-6.1-0.3
	c-41.7,0-75.6,33.8-75.6,75.6s33.8,75.6,75.6,75.6s75.6-33.8,75.6-75.6c0-3.2-0.2-6.4-0.6-9.5C329.1,261.1,317.2,266.4,304.1,266.4
	L304.1,266.4L304.1,266.4z"/>
</svg>
