<?xml version="1.0" encoding="UTF-8"?>
<svg id="Capa_1" data-name="Capa 1" xmlns="http://www.w3.org/2000/svg" viewBox="0 0 337.73 335.14">
  <defs>
    <style>
      .cls-1 {
        fill: #938979;
      }
    </style>
  </defs>
  <circle class="cls-1" cx="195.44" cy="169.38" r="21.21"/>
  <path class="cls-1" d="M142.33,200.64c-10.23-.02-18.77,7.13-20.74,16.74-2.03,9.86,3.12,19.66,12.51,23.61,6.89,2.9,14.51,1.98,20.65-2.28,5.66-3.93,9.13-10.55,9.11-17.94l-.04-20.09-21.49-.04Z"/>
  <path class="cls-1" d="M142.32,190.4l21.52-.02v-42.01s-21.99.03-21.99.03c-11.75.02-20.84,9.85-20.71,21.19.13,11.45,9.42,20.81,21.17,20.8Z"/>
  <path class="cls-1" d="M142.33,138.12l21.52-.04v-42s-21.98.04-21.98.04c-11.74.02-20.83,9.84-20.71,21.17.11,11.47,9.42,20.85,21.17,20.83Z"/>
  <path class="cls-1" d="M195.6,96.08h-21.51s0,42.01,0,42.01l22.26-.05c11.96-.03,20.79-10.33,20.42-21.63-.37-11.27-9.57-20.33-21.16-20.33Z"/>
  <path class="cls-1" d="M168.86,54.27c-63.58,0-115.13,51.54-115.13,115.13s51.54,115.13,115.13,115.13,115.13-51.54,115.13-115.13-51.54-115.13-115.13-115.13ZM225.67,178.43c-3.81,12.68-15.48,21.84-29.17,22.21-8.3.22-15.57-2.32-22.37-7.99l-.12,29.48c-.04,10.61-6,20.1-14.1,25.44-9.51,6.26-20.97,6.99-30.96,2.33-10.38-4.85-17.08-14.78-17.95-25.76-.9-11.37,4.3-22.08,13.97-28.64-8.94-6.05-14.01-15.62-14.07-25.97-.06-10.45,5.04-20.17,14.08-26.3-11.72-7.93-16.74-21.92-12.72-35.24,3.77-12.48,15.47-22.07,29.18-22.08l54.55-.04c13.78,0,25.58,9.21,29.54,21.77,4.23,13.41-.83,27.6-12.59,35.59,11.67,7.91,16.7,21.93,12.72,35.18Z"/>
</svg>