<?xml version="1.0" encoding="UTF-8"?>
<svg id="Capa_1" data-name="Capa 1" xmlns="http://www.w3.org/2000/svg" viewBox="0 0 337.73 335.14">
  <defs>
    <style>
      .cls-1 {
        fill: #938979;
      }
    </style>
  </defs>
  <path class="cls-1" d="M160.74,54.63c-85.3,5.31-134.79,100.86-90.62,174.32,45.24,75.24,156.06,73.59,198.98-2.96,44.98-80.22-17.2-177.04-108.36-171.36ZM149.83,211.21c-16.09,3.45-35.45.12-51.99,1.31v-88.21h46.47c4.3.38,10.22,2.16,13.87,4.51,12.15,7.82,12.79,29.69-1,36.18,21.55,10.28,15.04,41.42-7.35,46.21ZM187.11,129.56h38.33v8.93h-38.33v-8.93ZM239.61,184.69h-47.25c-.97,16.4,21.01,21.79,29.14,8.4h17.06c-6.02,28.38-52.71,28.32-61.58,1.99-8.9-26.44,6.49-53.98,36.57-49.17,20.03,3.21,27.23,20.05,26.06,38.78Z"/>
  <path class="cls-1" d="M145.9,175.23c-1.04-.44-4.9-1.56-5.79-1.56h-24.41v23.1h25.99c.37,0,4.09-1.33,4.65-1.65,6.7-3.87,7.3-16.63-.44-19.89Z"/>
  <path class="cls-1" d="M147.23,156.1c3.01-2.83,3.32-10.18.51-13.16-.97-1.03-5.29-2.88-6.57-2.88h-25.46v18.9h24.41c1.41,0,5.97-1.79,7.11-2.86Z"/>
  <path class="cls-1" d="M192.88,173.14h28.88c-1.13-17.87-27.96-17.95-28.88,0Z"/>
</svg>