<?xml version="1.0" encoding="UTF-8"?>
<svg id="Capa_1" data-name="Capa 1" xmlns="http://www.w3.org/2000/svg" viewBox="0 0 337.73 335.14">
  <defs>
    <style>
      .cls-1 {
        fill: #938979;
      }
    </style>
  </defs>
  <path class="cls-1" d="M162.05,54.58c-89.81,4.94-139.5,108.4-86.7,181.93,49.17,68.49,153.24,62.46,194.05-11.21,44.02-79.47-17.28-175.68-107.34-170.72ZM130.44,238.34h-28.56v-91.55h28.56v91.55ZM111.75,132.43c-16.84-4.58-14.6-29.53,1.38-31.7,27.37-3.71,23.75,38.53-1.38,31.7ZM237.64,238.34h-27.78v-52.62c0-17.37-29.02-21.55-34.93-2.46-.26.85-1.06,3.77-1.06,4.41v50.66h-27.78v-91.55h26.21v12.91c6.13-7.55,14.81-12.93,24.56-14.37,12.99-1.91,27.88,3.1,34.83,14.64,2.07,3.44,5.94,12.51,5.94,16.36v62.01Z"/>
</svg>