<?xml version="1.0" encoding="UTF-8"?>
<svg id="Capa_1" data-name="Capa 1" xmlns="http://www.w3.org/2000/svg" viewBox="0 0 1693.13 279.13">
  <defs>
    <style>
      .cls-1 {
        fill: #938979;
      }
    </style>
  </defs>
  <path class="cls-1" d="M1165.31,36.57h-203.73c-3.18,0-5.76,2.6-5.76,5.8v194.52c0,3.2,2.58,5.8,5.76,5.8h203.73c3.18,0,5.76-2.6,5.76-5.8v-46.02c0-2.58-1.69-4.75-4-5.5h-84.29l.04-.24c-.33,0-.65-.03-.97-.06h-1.41c-.66,0-1.29-.37-1.89-.94-.49-.23-.96-.5-1.41-.8-3.46-2.04-5.8-5.93-5.8-10.42,0-5.11,3.03-9.45,7.29-11.16.57-.51,1.18-.82,1.81-.82h76.05c3.18,0,5.76-2.6,5.76-5.8v-29.38c0-2.58-1.68-4.77-4-5.52h-75.47l.04-.24c-.25,0-.5-.02-.75-.04h-1.63c-.49,0-.97-.29-1.43-.77-.6-.25-1.17-.55-1.71-.89-3.55-2.01-5.96-5.96-5.96-10.52,0-4.96,2.86-9.2,6.93-11.01.67-.61,1.4-.98,2.17-.98h84.87c3.18,0,5.76-2.6,5.76-5.8v-47.61c0-3.2-2.58-5.8-5.76-5.8Z"/>
  <path class="cls-1" d="M1671.86,36.57h-203.73c-3.18,0-5.76,2.6-5.76,5.8v194.52c0,3.2,2.58,5.8,5.76,5.8h203.73c3.18,0,5.76-2.6,5.76-5.8v-46.02c0-2.58-1.69-4.75-4-5.5h-86.37l.04-.24c-6.1-.17-10.99-5.44-10.99-11.94,0-5.88,4.02-10.76,9.3-11.76.45-.31.92-.5,1.4-.5h76.05c3.18,0,5.76-2.6,5.76-5.8v-29.38c0-2.58-1.68-4.77-4-5.52h-77.55l.04-.24c-6.1-.17-10.99-5.44-10.99-11.94,0-5.81,3.91-10.64,9.09-11.73.51-.34,1.05-.55,1.61-.55h84.87c3.18,0,5.76-2.6,5.76-5.8v-47.61c0-3.2-2.58-5.8-5.76-5.8Z"/>
  <path class="cls-1" d="M134.74,247.87c18.35,0,38.07-2.19,61.89-6.81,4.25-.82,7.33-4.54,7.33-8.87v-61.46c0-5.42-4.74-9.63-10.12-8.97-18.4,2.26-31.69,2.98-43.53,2.98-19.21,0-28.48-8.28-28.48-25.17s9.27-25.17,28.15-25.17c10.21,0,24.78.97,43.94,3.12,5.35.6,10.05-3.59,10.05-8.97v-61.6c0-4.33-3.08-8.05-7.33-8.87-23.82-4.62-43.53-6.81-61.89-6.81-77.83,0-119.23,38.09-119.23,108.3s41.4,108.3,119.23,108.3Z"/>
  <path class="cls-1" d="M239.88,242.57h76.97c4.99,0,9.03-4.04,9.03-9.03v-44.86c0-4.99,4.04-9.03,9.03-9.03h4.5c4.99,0,9.03,4.04,9.03,9.03v44.86c0,4.99,4.04,9.03,9.03,9.03h76.97c4.99,0,9.03-4.04,9.03-9.03V45.6c0-4.99-4.04-9.03-9.03-9.03h-76.97c-4.99,0-9.03,4.04-9.03,9.03v49.17c0,4.99-4.04,9.03-9.03,9.03h-4.5c-4.99,0-9.03-4.04-9.03-9.03v-49.17c0-4.99-4.04-9.03-9.03-9.03h-76.97c-4.99,0-9.03,4.04-9.03,9.03v187.94c0,4.99,4.04,9.03,9.03,9.03Z"/>
  <path class="cls-1" d="M462.55,242.57h95.24c4.41,0,8.06-3.18,8.34-7.27l.45-16.69c.28-4.09,3.93-7.27,8.34-7.27h13.23c4.41,0,8.06,3.18,8.34,7.27l.45,16.69c.28,4.09,3.93,7.27,8.34,7.27h95.58c5.66,0,9.68-5.11,7.95-10.12l-65.65-190.49c-1.11-3.21-4.32-5.39-7.95-5.39h-107.32c-3.64,0-6.86,2.18-7.96,5.4l-65.32,190.49c-1.71,5,2.31,10.1,7.96,10.1ZM563.49,115.53c6.23-6.23,8.8-24.67,18.31-24.67s12.08,18.44,18.31,24.67c6.23,6.23,24.67,8.8,24.67,18.31s-18.44,12.08-24.67,18.31c-6.23,6.23-8.8,24.67-18.31,24.67s-12.08-18.44-18.31-24.67c-6.23-6.23-24.67-8.8-24.67-18.31s18.44-12.08,24.67-18.31Z"/>
  <path class="cls-1" d="M927.21,36.57h-70.34c-4.99,0-9.03,4.04-9.03,9.03v23.76c0,11.49.31,22.97,1.81,34.46.09.69-.44,1.31-1.14,1.31-.41,0-.8-.22-1-.58l-36.47-63.44c-1.61-2.8-4.6-4.53-7.83-4.53h-73.84c-4.99,0-9.03,4.04-9.03,9.03v187.94c0,4.99,4.04,9.03,9.03,9.03h72.35c4.99,0,9.03-4.04,9.03-9.03v-21.11c0-12.48-.31-24.66-1.82-37.12-.08-.69.45-1.3,1.14-1.3h0c.41,0,.8.22,1,.58l36.47,63.44c1.61,2.8,4.6,4.53,7.83,4.53h71.83c4.99,0,9.03-4.04,9.03-9.03V45.6c0-4.99-4.04-9.03-9.03-9.03Z"/>
  <path class="cls-1" d="M1405.16,138.05c-1.12-2.37-1.11-5.18.02-7.54l39.08-81.64c2.62-5.48-1.05-12.02-6.75-12.02h-99.02c-3.66,0-6.81,2.83-7.48,6.73l-10.7,62.2c-.79,4.64-7.78,6.96-13.71,6.96-4.2,0-7.6-3.69-7.6-8.23v-59.42c0-4.55-3.4-8.23-7.6-8.23h-92.7c-4.2,0-7.6,3.69-7.6,8.23v189.65c0,4.55,3.4,8.23,7.6,8.23h92.7c4.2,0,7.6-3.69,7.6-8.23v-65.71c0-4.55,3.4-8.23,7.6-8.23h6.2c5.14,0,7.51,1.66,8.3,6.63l11.15,68.74c.64,3.94,3.8,6.81,7.49,6.81h102.58c5.68,0,9.36-6.51,6.77-11.98l-43.93-92.93Z"/>
</svg>