<?xml version="1.0" encoding="UTF-8"?><svg xmlns="http://www.w3.org/2000/svg" viewBox="0 0 719 719"><g id="a"><g><rect x="172.29" y="505.76" width="35.11" height="31.21" fill="#938a79"/><path d="M375.1,334.14c0,8.62-6.98,15.61-15.6,15.61s-15.6-6.99-15.6-15.61v-33.84l-32.74,49.54,23.71,54.51h51.38l21.81-54.41-32.95-51.68v35.87Z" fill="#938a79"/><rect x="318.54" y="435.55" width="81.91" height="13.65" fill="#938a79"/><path d="M513.56,244.44h-17.58c-4.13,.02-8.09-1.6-11.01-4.51-2.93-2.91-4.56-6.86-4.56-11v-15.69H238.59v15.69c0,4.13-1.64,8.09-4.56,11-2.92,2.91-6.88,4.54-11.01,4.51h-17.58v230.12h17.58c4.13-.02,8.09,1.6,11.01,4.51,2.92,2.91,4.56,6.86,4.56,11v15.69h241.82v-15.69c0-4.13,1.64-8.09,4.56-11,2.92-2.91,6.88-4.54,11.01-4.51h17.58V244.44Zm-73.72,109.77l-20.41,50.67c7.22,1.49,12.35,7.92,12.22,15.3v31.04c.11,7.76-2.91,15.23-8.39,20.72-5.47,5.49-12.93,8.54-20.69,8.47h-86.17c-7.76,.07-15.21-2.98-20.69-8.47-5.47-5.49-8.5-12.97-8.38-20.72v-31.04c-.14-7.99,5.89-14.76,13.85-15.53l-22.02-50.01c-2.1-4.84-1.62-10.4,1.29-14.81l67.19-101.89c2.91-4.42,7.86-7.05,13.15-7.01,5.29,.05,10.19,2.77,13.04,7.22l64.77,101.89c2.67,4.25,3.14,9.52,1.25,14.17Z" fill="#938a79"/><rect x="172.29" y="182.04" width="35.11" height="31.21" fill="#938a79"/><rect x="511.61" y="505.76" width="35.11" height="31.21" fill="#938a79"/><path d="M359.5,16.38C170,16.38,16.38,170,16.38,359.5s153.62,343.12,343.12,343.12,343.12-153.62,343.12-343.12S549,16.38,359.5,16.38Zm218.42,212.55c0,8.62-7.81,15.51-16.43,15.51h-16.72v230.12h16.72c8.62,0,16.43,6.89,16.43,15.51v62.67c0,8.62-7.81,15.43-16.43,15.43h-65.51c-4.12,.04-8.07-1.57-11-4.47-2.92-2.89-4.57-6.84-4.57-10.96v-15.77H238.59v15.77c0,4.12-1.65,8.06-4.57,10.96-2.93,2.9-6.89,4.51-11,4.47h-65.51c-8.62,0-16.43-6.81-16.43-15.43v-62.67c0-8.62,7.81-15.51,16.43-15.51h16.72V244.44h-16.72c-8.62,0-16.43-6.89-16.43-15.51v-62.67c0-8.62,7.81-15.43,16.43-15.43h65.51c4.11-.04,8.07,1.57,11,4.47,2.92,2.89,4.57,6.84,4.57,10.96v15.77h241.82v-15.77c0-4.12,1.65-8.06,4.57-10.96,2.93-2.9,6.89-4.51,11-4.47h65.51c8.62,0,16.43,6.81,16.43,15.43v62.67Z" fill="#938a79"/><rect x="511.61" y="182.04" width="35.11" height="31.21" fill="#938a79"/></g></g><g id="b"/></svg>