<?xml version="1.0" encoding="UTF-8"?><svg xmlns="http://www.w3.org/2000/svg" viewBox="0 0 719 719"><g id="a"><g><path d="M332.51,423.08v99.18h189.82v-189.84h-99.27c-13.4,43.12-47.46,77.22-90.55,90.67Z" fill="#938a79"/><path d="M291.58,196.74c-52.34,0-94.92,42.58-94.92,94.91s41.63,93.76,93.13,94.74v-96.7h96.52c-1.07-51.41-43.05-92.95-94.72-92.95Z" fill="#938a79"/><path d="M376.94,332.42h-44.43v44.5c19.43-9.37,35.1-25.05,44.43-44.5Z" fill="#938a79"/><path d="M359.5,16.79C170.22,16.79,16.79,170.22,16.79,359.5s153.44,342.71,342.71,342.71,342.71-153.44,342.71-342.71S548.78,16.79,359.5,16.79Zm205.56,548.2H289.79v-135.78c-75.06-.98-135.85-62.27-135.85-137.56s61.75-137.64,137.65-137.64,136.48,60.69,137.55,135.68h135.93v275.3Z" fill="#938a79"/></g></g><g id="b"/></svg>