<?xml version="1.0" encoding="UTF-8"?><svg xmlns="http://www.w3.org/2000/svg" viewBox="0 0 719 719"><g id="a"><g><path d="M359.5,16.38C170,16.38,16.38,170,16.38,359.5s153.62,343.12,343.12,343.12,343.12-153.62,343.12-343.12S549,16.38,359.5,16.38Zm239.11,458.89c-.09,39.85-32.89,73.39-72.65,73.48-109.9,.19-219.9,.19-329.89-.09-40.23-.09-72.93-33.44-72.93-73.76v-164.25c0-39.85,32.79-73.02,72.65-73.39,17.84-.19,35.67-.37,53.51,0,6.04,.19,8.27-1.95,9.01-7.62,1.02-7.62,2.41-15.24,3.81-22.76,3.81-21.37,22.48-36.88,44.13-36.7,36.98-.09,73.86-.09,110.74,0,20.07,0,38.46,15.24,42.45,35.02,2.04,10.4,3.72,20.81,5.67,31.77,19.88,0,39.11,.09,58.43,0,16.91,0,32.24,4.74,45.61,15.14,18.86,14.68,29.36,34.09,29.45,58.16,.28,54.9,.19,109.9,0,164.99Z" fill="#938a79"/><path d="M517.97,290.68c-10.78,.19-19.42,8.73-19.79,19.51v.37c.09,11.06,9.1,19.88,20.07,19.79,11.52,0,19.97-8.55,19.88-20.07-.09-11.52-8.55-19.79-20.16-19.6Z" fill="#938a79"/><path d="M362.18,258.48c-71.04-.33-129.44,56.66-129.66,126.61-.21,72.46,56.88,130.1,128.9,130.1s127.81-57.64,127.92-127.59c.11-71.15-56.55-128.68-127.16-129.12Zm6.7,217.84l3.65,2.43-13.57-1.5-13.02,1.03,3.46-2.2c-40.28-5.04-72.16-36.91-77.72-78.08l-.89-6.57-1.16,1.31,.61-5.44-.84-6.2,1.36,1.49,.73-6.54c4.48-40.41,37.09-73.12,77.74-78.39l-3.53-2.2,13.33,.96,13.53-1.54-3.61,2.41c46.57,4.22,81.1,40.97,82.27,88.2l-10.67,.62c-.73-8.09-13.2-13.75-25.25-19.22-8.94-4.06-17.38-7.88-22.79-13.29-5.43-5.42-9.25-13.88-13.33-22.84-4.49-9.88-9.11-20.1-15.14-23.87l-4.9-3.05-4.98,3.32c-5.91,3.94-10.46,13.97-14.87,23.69-4.07,8.92-7.9,17.36-13.3,22.77-5.41,5.42-13.85,9.26-22.79,13.33-8.75,3.99-17.82,8.12-22.41,13.27l-6.02,6.77,6.16,6.72c4.64,5.09,13.6,9.16,22.27,13.11,8.94,4.06,17.38,7.91,22.79,13.32,5.41,5.41,9.23,13.84,13.28,22.76,4.43,9.72,8.98,19.77,14.91,23.71l4.99,3.32,4.95-3.14c5.99-3.81,10.61-13.98,15.08-23.82,4.05-8.95,7.9-17.41,13.3-22.82,5.41-5.41,13.89-9.24,22.85-13.29,12.28-5.53,24.96-11.27,25.34-19.6l10.69,.24c.1,.71,.15,1.28,.13,1.88-.52,44.69-36.72,82.62-82.65,87Z" fill="#938a79"/></g></g><g id="b"/></svg>