<?xml version="1.0" encoding="UTF-8"?><svg id="a" xmlns="http://www.w3.org/2000/svg" viewBox="0 0 719 719"><path d="M336.51,25.14C87.99,40.61-56.19,318.98,72.49,533c131.8,219.2,454.67,214.4,579.71-8.62C783.25,290.66,602.09,8.59,336.51,25.14Zm-31.79,456.18c-46.88,10.05-103.28,.35-151.47,3.82V228.14h135.39c12.53,1.11,29.77,6.29,40.41,13.14,35.4,22.78,37.26,86.5-2.91,105.41,62.78,29.95,43.82,120.67-21.41,134.63h0Zm108.61-237.88h111.67v26.02h-111.67v-26.02Zm152.95,160.62h-137.66c-2.83,47.78,61.21,63.48,84.9,24.47h49.7c-17.54,82.68-153.57,82.51-179.41,5.8-25.93-77.03,18.91-157.27,106.54-143.25,58.36,9.35,79.33,58.41,75.92,112.98h0Z" fill="#938979"/><path d="M293.27,376.49c-3.03-1.28-14.28-4.54-16.87-4.54h-71.12v67.3h75.72c1.08,0,11.92-3.87,13.55-4.81,19.52-11.27,21.27-48.45-1.28-57.95h0Z" fill="#938979"/><path d="M297.15,320.76c8.77-8.24,9.67-29.66,1.49-38.34-2.83-3-15.41-8.39-19.14-8.39h-74.18v55.06h71.12c4.11,0,17.39-5.21,20.71-8.33h0Z" fill="#938979"/><path d="M430.14,370.4h84.14c-3.29-52.06-81.46-52.3-84.14,0Z" fill="#938979"/></svg>