<?xml version="1.0" encoding="UTF-8"?><svg id="a" xmlns="http://www.w3.org/2000/svg" viewBox="0 0 719 719"><circle cx="436.86" cy="359.44" r="61.73" fill="#938979"/><path d="M282.29,450.42c-29.77-.06-54.63,20.75-60.36,48.72-5.91,28.7,9.08,57.22,36.41,68.71,20.05,8.44,42.23,5.76,60.1-6.64,16.47-11.44,26.57-30.7,26.51-52.21l-.12-58.47-62.54-.12h0Z" fill="#938979"/><path d="M282.26,420.62l62.63-.06v-122.26l-64,.09c-34.2,.06-60.65,28.67-60.27,61.67,.38,33.32,27.41,60.56,61.61,60.53l.03,.03Z" fill="#938979"/><path d="M282.29,268.47l62.63-.12v-122.23l-63.97,.12c-34.17,.06-60.62,28.64-60.27,61.61,.32,33.38,27.41,60.68,61.61,60.62h0Z" fill="#938979"/><path d="M437.32,146.12h-62.6v122.26l64.78-.15c34.81-.09,60.5-30.06,59.43-62.95-1.08-32.8-27.85-59.17-61.58-59.17h-.03Z" fill="#938979"/><path d="M359.5,24.44C174.46,24.44,24.44,174.44,24.44,359.5s150,335.06,335.06,335.06,335.06-150,335.06-335.06S544.56,24.44,359.5,24.44h0Zm165.33,361.34c-11.09,36.9-45.05,63.56-84.89,64.64-24.16,.64-45.31-6.75-65.1-23.25l-.35,85.79c-.12,30.88-17.46,58.5-41.03,74.04-27.68,18.22-61.03,20.34-90.1,6.78-30.21-14.11-49.71-43.01-52.24-74.97-2.62-33.09,12.51-64.26,40.66-83.35-26.02-17.61-40.77-45.46-40.95-75.58-.17-30.41,14.67-58.7,40.98-76.54-34.11-23.08-48.72-63.79-37.02-102.56,10.97-36.32,45.02-64.23,84.92-64.26l158.76-.12c40.1,0,74.44,26.8,85.97,63.36,12.31,39.03-2.42,80.32-36.64,103.58,33.96,23.02,48.6,63.82,37.02,102.38l.03,.06Z" fill="#938979"/></svg>